<?xml version="1.0" encoding="UTF-8" standalone="no"?>
<!DOCTYPE svg PUBLIC "-//W3C//DTD SVG 1.1//EN" "http://www.w3.org/Graphics/SVG/1.1/DTD/svg11.dtd">
<svg width="100%" height="100%" viewBox="0 0 2134 2134" version="1.1" xmlns="http://www.w3.org/2000/svg" xmlns:xlink="http://www.w3.org/1999/xlink" xml:space="preserve" xmlns:serif="http://www.serif.com/" style="fill-rule:evenodd;clip-rule:evenodd;stroke-linejoin:round;stroke-miterlimit:1.41421;">
    <g transform="matrix(4.16667,0,0,4.16667,1562.34,1750.13)">
        <g id="Layer-1" serif:id="Layer 1">
            <path d="M0,-327.031L-238.895,-327.031C-263.231,-327.031 -282.961,-307.301 -282.961,-282.965L-282.961,-44.07C-282.961,-19.731 -263.231,-0.004 -238.895,-0.004L-121.074,-0.004L-120.871,-116.863L-151.234,-116.863C-155.18,-116.863 -158.383,-120.055 -158.395,-124L-158.543,-161.672C-158.559,-165.637 -155.344,-168.863 -151.379,-168.863L-121.07,-168.863L-121.07,-205.262C-121.07,-247.5 -95.273,-270.5 -57.594,-270.5L-26.672,-270.5C-22.719,-270.5 -19.508,-267.293 -19.508,-263.336L-19.508,-231.574C-19.508,-227.617 -22.715,-224.41 -26.668,-224.41L-45.645,-224.399C-66.137,-224.399 -70.106,-214.664 -70.106,-200.371L-70.106,-168.86L-25.078,-168.86C-20.785,-168.86 -17.457,-165.113 -17.965,-160.856L-22.43,-123.184C-22.856,-119.578 -25.914,-116.863 -29.543,-116.863L-69.902,-116.863L-70.106,0L0,0C24.336,0 44.066,-19.731 44.066,-44.067L44.066,-282.965C44.066,-307.301 24.336,-327.031 0,-327.031" style="fill:white;fill-rule:nonzero;"/>
        </g>
    </g>
</svg>
